<svg aria-hidden="true" style="position:absolute;width:0;height:0;overflow:hidden" xmlns="http://www.w3.org/2000/svg"><defs><symbol id="icon-antenna" viewBox="0 0 128 64"><path fill="#212121" style="fill:var(--color1, #212121)" d="m27.868 20.625-7.881-7.938.875-4.308c.21.084.453.134.707.136h.031a2.015 2.015 0 1 0-1.894-1.326l-.004-.014-4.629.565L7.522.149A.498.498 0 0 0 7.171 0a.501.501 0 0 0-.349.145L5.411 1.549a.497.497 0 0 0 0 .704l.759.77C5.103 4.948 4.475 7.244 4.475 9.686c0 3.832 1.545 7.303 4.047 9.823l-.001-.001c.04.038.086.069.137.091-.03.153-.047.329-.049.51v5.775H2.636a2.493 2.493 0 0 0-2.49 2.489v.996c0 .275.223.498.498.498h22.898a.497.497 0 0 0 .497-.498v-.995a2.492 2.492 0 0 0-2.489-2.489h-5.973v-2.559a13.802 13.802 0 0 0 9.488-1.402l-.072.036.764.768a.498.498 0 0 0 .351.149.501.501 0 0 0 .349-.145l1.411-1.404a.497.497 0 0 0 0-.704zM20.875 5.818a.995.995 0 1 1 .702 1.7h-.003a.995.995 0 0 1-.697-1.701h-.002zm-1.172 3.27-.558 2.749-1.097-1.104 1.655-1.646zm-.566-.842-1.792 1.782-1.387-1.394 3.179-.388zM21.55 26.88c.825 0 1.493.669 1.493 1.493v.498H1.141v-.498c0-.825.669-1.493 1.493-1.493h18.915zm-6.968-1.991v.996H9.604v-.996h4.978zm-4.978-.996V20.11c0-1.207 1.117-2.19 2.489-2.19s2.489.983 2.489 2.19v3.783H9.604zm5.973-1.583v-2.2c0-1.757-1.563-3.186-3.485-3.186h-.054c-1.262 0-2.371.66-2.999 1.653l-.009.015a12.894 12.894 0 0 1-3.557-8.913c0-2.16.529-4.196 1.464-5.987l-.034.071 17.362 17.461c-1.701.884-3.714 1.402-5.848 1.402-1.007 0-1.987-.115-2.927-.334l.087.017zm10.537-.638L6.461 1.903l.704-.702 7.406 7.448c.003 0 .006.006.009.009L26.82 20.97l-.706.702z"/><path fill="#2196f3" style="fill:var(--color2, #2196f3)" d="M12.097 18.915h-.006a1.493 1.493 0 0 0-.002 2.986h.006a1.493 1.493 0 0 0 .002-2.986zm.348 1.847a.498.498 0 1 1-.353-.851.497.497 0 0 1 .348.85h.004z"/></symbol><symbol id="icon-astronaut" viewBox="0 0 128 64"><path fill="#2196f3" style="fill:var(--color2, #2196f3)" d="M29.842 4.222a.5.5 0 0 0-.399-.338h-.003l-1.783-.259-.798-1.616c-.167-.341-.725-.341-.892 0l-.798 1.616-1.783.259a.499.499 0 0 0-.277.849L24.4 5.991l-.305 1.776a.499.499 0 0 0 .723.525l1.595-.839 1.595.839a.498.498 0 0 0 .722-.527v.003l-.305-1.776 1.291-1.258a.497.497 0 0 0 .125-.514l.001.003zm-2.298 1.239a.498.498 0 0 0-.143.441l.178 1.04-.934-.491a.492.492 0 0 0-.467.001l.003-.001-.934.491.178-1.04a.494.494 0 0 0-.143-.441l-.756-.737 1.044-.151a.496.496 0 0 0 .375-.273l.467-.946.467.946a.5.5 0 0 0 .375.273l1.044.151-.755.737zm-3.153 13.693h-.995v.996h.995v-.996zm0 1.992h-.995v.995h.995v-.995zm.996-.996h-.995v.995h.995v-.995zm-1.991 0H22.4v.995h.996v-.995zm-2.489 4.48h-.995v.995h.995v-.995zm0 1.991h-.995v.995h.995v-.995zm.995-.995h-.996v.995h.996v-.996zm-1.991 0h-.996v.995h.996v-.996zm-4.978-2.987h-.995v.995h.995v-.996zm0 1.991h-.995v.995h.995v-.995zm.996-.996h-.995v.996h.995v-.996zm-1.991 0h-.996v.996h.996v-.996zM5.475 5.714H4.48v.995h.995v-.995zm0 1.991H4.48V8.7h.995v-.995zm.996-.996h-.995v.996h.995v-.996zm-1.991 0h-.996v.996h.996v-.996z"/><path fill="#212121" style="fill:var(--color1, #212121)" d="M23.067 13.216a1.654 1.654 0 0 0-1.1-.656l-.009-.001a1.654 1.654 0 0 0-1.254.331l.004-.003-1.169.896-1.771 1.323-1.267-.505c2.26-1.014 3.839-3.274 3.839-5.899 0-3.568-2.914-6.471-6.497-6.471S7.346 5.134 7.346 8.702c0 1.293.387 2.496 1.045 3.508l-2.584-.023c-.008 0-.014.004-.022.004a.476.476 0 0 0-.148.031l.003-.001-.036.012-.018.006-3.017 1.489-.001.001-1.767.85a.313.313 0 0 0-.06.034l.001-.001a1.662 1.662 0 0 0-.554 2.152l-.004-.009c.205.395.553.693.974.826l.012.003a1.649 1.649 0 0 0 1.296-.124l-.009.004 1.295-.689 2.113-1.091 1.266-.007-5.079 5.054-.001.001-1.249 1.244a1.533 1.533 0 0 0-.458 1.095v.005A1.556 1.556 0 0 0 1.9 24.629h.002a1.56 1.56 0 0 0 1.102-.453l1.227-1.222 1.625-1.213.841.837-2.895 2.883a1.533 1.533 0 0 0-.458 1.095v.004A1.552 1.552 0 0 0 4.9 28.113h.003c.399 0 .798-.151 1.102-.453l4.189-4.174c.006-.006.015-.008.021-.015l4.821-5.281 3.24.461a.506.506 0 0 0 .245-.031c.016-.006.03-.014.046-.022.018-.009.037-.014.054-.026l2.999-1.991c.011-.008.017-.02.027-.028.012-.009.027-.013.038-.024l1.186-1.111a1.66 1.66 0 0 0 .196-2.208l.003.004zM1.988 16.585a.654.654 0 0 1-.526.047l.005.001a.669.669 0 0 1-.2-1.174l.002-.001 1.226-.59.295.863.124.363-.926.492zm3.264-1.705-1.445.747-.238-.697-.171-.501 1.892-.934-.037 1.385zm14.093-6.179c0 .857-.205 1.666-.559 2.389l-3.903-1.773a1.738 1.738 0 0 0-.73-1.291l-.005-.004 1.367-4.537c2.219.706 3.831 2.776 3.831 5.216zm-11.003 0c0-3.019 2.468-5.476 5.501-5.476.236 0 .467.02.695.049L13.201 7.71c-.018 0-.035-.006-.053-.006h-.001c-.963 0-1.744.78-1.747 1.742a1.743 1.743 0 0 0 3.257.861l3.605 1.638a5.5 5.5 0 0 1-4.421 2.231c-3.034 0-5.501-2.456-5.501-5.475zm5.56.746a.75.75 0 0 1-.753.747h-.001a.752.752 0 0 1-.751-.746c0-.412.337-.747.752-.747s.752.335.752.747zM2.3 23.47a.565.565 0 0 1-.798.001.556.556 0 0 1 0-.788l.898-.895.795.791-.895.891zm3 3.484a.565.565 0 0 1-.798.001.551.551 0 0 1 0-.788l.899-.895.795.791-.896.892zm3.249-3.237-.001.001-1.647 1.643-.795-.791 1.647-1.64a.5.5 0 0 0 .084-.127c.006-.013.019-.024.024-.037.015-.038.018-.08.024-.12.003-.023.013-.044.013-.068 0-.033-.012-.065-.019-.098-.006-.03-.006-.06-.018-.089a.484.484 0 0 0-.086-.129c-.009-.011-.013-.025-.023-.035h-.001l-.001-.002-1.5-1.493c-.016-.016-.036-.022-.054-.036a.432.432 0 0 0-.079-.052l-.003-.001a.415.415 0 0 0-.084-.029l-.003-.001a.515.515 0 0 0-.095-.019h-.023a.536.536 0 0 0-.07.005h.003c-.033.004-.064.009-.097.019s-.059.026-.088.042c-.019.01-.04.014-.057.027l-1.655 1.236-.841-.838 2.239-2.227 4.07 4.003-.866.858zm6.365-6.549c-.014-.002-.028.003-.043.003l-.025-.001a.61.61 0 0 0-.086.007h.003a.455.455 0 0 0-.174.065l.002-.001a.48.48 0 0 0-.077.057c-.012.01-.026.015-.038.027l-4.384 4.803-4.04-3.973 2.644-2.63a.497.497 0 0 0-.352-.85h-.001l-2.071.012.026-1.5 2.897.025a6.467 6.467 0 0 0 4.646 1.961h.003a6.62 6.62 0 0 0 1.194-.114c.037.03.074.06.121.079l2.249.896.142.708.166.826-2.803-.399zm3.771.166-.292-1.454 1.35-1.008.883 1.173-1.941 1.289zm3.503-2.642-.782.733-.869-1.154.776-.595a.689.689 0 0 1 .507-.134.672.672 0 0 1 .579.662.662.662 0 0 1-.211.486z"/><path fill="#212121" style="fill:var(--color1, #212121)" d="m12.695 17.308-2-1.991a.494.494 0 0 0-.702 0l-2 1.991a.498.498 0 0 0 0 .706l1.999 1.991a.494.494 0 0 0 .702 0l2-1.991a.495.495 0 0 0 0-.706zm-2.35 1.642-1.294-1.289 1.294-1.289 1.295 1.289-1.295 1.289zM16.02 4.733l-.241.967c.067.017 1.622.422 1.622 2.005h.996c0-1.882-1.555-2.767-2.377-2.972zm2.377 3.968h-.996v.995h.996v-.995z"/></symbol><symbol id="icon-client1" viewBox="0 0 128 64"><path fill="#afb1b8" style="fill:var(--color3, #afb1b8)" d="m2.56 0 2.99 2.83L0 2.827v13.734h14.507V11.31l2.987 2.828V.001H2.561zm11.815 10.977L5.897 2.951h8.478v8.026zm-2.632 3.574H2.295V5.315h.668v8.611h8.78v.625zm-7.216 3.838-.349.719-.349-.719h-.293l.509.958v.558h.265v-.558l.508-.958h-.291zm.439 1.517.123-.353h.588l.124.353h.275l-.574-1.517h-.237l-.573 1.517h.274zm.416-1.195.22.629h-.439l.22-.629zm1.39.593a.338.338 0 0 0-.057.19v.003c0 .128.045.232.134.311s.21.119.361.119c.15 0 .279-.041.387-.122l.085.101h.294l-.223-.264a.76.76 0 0 0 .131-.459h-.22a.608.608 0 0 1-.063.278l-.293-.346.103-.075a.579.579 0 0 0 .156-.156l.001-.002a.331.331 0 0 0 .048-.172V18.701a.31.31 0 0 0-.106-.234.379.379 0 0 0-.256-.098h-.016.001c-.122 0-.219.035-.291.104s-.108.163-.108.282a.37.37 0 0 0 .034.151.978.978 0 0 0 .124.189.907.907 0 0 0-.226.209zm.684.335a.377.377 0 0 1-.239.085h-.012a.248.248 0 0 1-.169-.066.227.227 0 0 1-.068-.162v-.009c0-.081.042-.154.125-.217l.032-.023.331.391zm-.272-.672c-.072-.088-.107-.161-.107-.22 0-.051.015-.093.044-.126a.147.147 0 0 1 .112-.05h.011c.042 0 .08.016.108.043.03.028.045.062.045.101v.006a.187.187 0 0 1-.064.141l-.032.026-.116.079zm2.469.824a.55.55 0 0 0 .179-.379H9.57c-.014.108-.047.186-.099.232s-.13.07-.233.07c-.113 0-.199-.043-.258-.129s-.088-.211-.088-.375v-.134c.002-.162.033-.284.094-.368s.15-.126.265-.126c.099 0 .173.024.224.073s.083.127.096.235h.262c-.017-.166-.076-.294-.178-.385s-.237-.137-.404-.137a.612.612 0 0 0-.329.089.582.582 0 0 0-.216.248l-.001.004a.88.88 0 0 0-.077.361v.019-.001.142c.002.14.028.262.078.368a.56.56 0 0 0 .533.329.616.616 0 0 0 .416-.135zm1.549-.212a.942.942 0 0 0 .077-.392v-.099a.905.905 0 0 0-.082-.379l.002.006a.582.582 0 0 0-.22-.255l-.002-.001c-.095-.06-.204-.09-.328-.09s-.233.03-.329.09a.596.596 0 0 0-.222.259.921.921 0 0 0-.078.373v.02-.001.085c.001.145.027.273.079.384s.127.197.223.258c.096.06.206.09.329.09.125 0 .234-.03.329-.09s.169-.147.221-.259zm-.282-.858c.064.09.096.219.096.387v.079c0 .171-.032.301-.095.39s-.152.134-.269.134h-.011a.316.316 0 0 1-.259-.136l-.001-.001c-.065-.091-.097-.22-.097-.387V19.1c.001-.163.034-.289.098-.378a.312.312 0 0 1 .257-.135h.011-.001c.117 0 .207.045.27.134z"/></symbol><symbol id="icon-client2" viewBox="0 0 128 64"><path fill="#afb1b8" style="fill:var(--color3, #afb1b8)" d="M7.302 1.252h-.058a6.043 6.043 0 0 0-.269-.01h-.194a9.88 9.88 0 0 0-.514.013l-.019-.001-.02.001h.001A12.03 12.03 0 0 0 1.67 2.431l.072-.031-.184.089v9.447l.432-.147c.379-.13.782-.247 1.2-.356a14.301 14.301 0 0 1 3.444-.459h.01v1.241a9.67 9.67 0 0 0-.454.013h-.036c-.97.055-1.879.2-2.753.429l.096-.021a13.455 13.455 0 0 0-3.235 1.269l.07-.035V1.754A12.425 12.425 0 0 1 3.566.422l.088-.019a12.442 12.442 0 0 1 3.127-.404h.185c.218.006.431.015.631.03.575.041 1.107.13 1.622.262L9.157.277v1.222a9.085 9.085 0 0 0-1.48-.226l-.031-.002-.031-.003a3.723 3.723 0 0 0-.309-.018zm2.15 1.249c.271.021.552.031.835.031a13.48 13.48 0 0 0 3.385-.443l-.094.021A13.532 13.532 0 0 0 16.812.84l-.07.035v11.9a12.46 12.46 0 0 1-3.234 1.332l-.088.019a12.49 12.49 0 0 1-3.128.403h-.08a9.593 9.593 0 0 1-2.364-.294l.066.014V2.272c.183.043.373.082.565.114.315.053.648.092.972.116zm6.056.092-.432.145c-.397.134-.798.253-1.2.359-1.075.288-2.31.455-3.584.46h-.003c-.282 0-.541-.008-.791-.024l-.344-.023v9.718l.296.026c.274.024.557.036.842.036a11.482 11.482 0 0 0 2.905-.384l-.08.018a11.821 11.821 0 0 0 2.278-.824l-.07.031.185-.089v-9.45zM1.168 18.01a.635.635 0 0 0-.458-.195H.687h.001-.01a.707.707 0 0 0-.273.054l.005-.002a.63.63 0 0 0-.354.355l-.001.004a.7.7 0 0 0-.05.268v1.619a.76.76 0 0 0 .064.332.64.64 0 0 0 .162.217c.064.054.14.094.222.115a.9.9 0 0 0 .242.033.685.685 0 0 0 .671-.681v-.181H.942v.154a.367.367 0 0 1-.026.137l.001-.003a.252.252 0 0 1-.061.091.292.292 0 0 1-.177.062l-.025.001a.215.215 0 0 1-.173-.088v-.001a.375.375 0 0 1-.057-.201v-.017.001-1.51a.508.508 0 0 1 .052-.242.216.216 0 0 1 .208-.097H.683h.008c.074 0 .14.036.181.091v.001a.34.34 0 0 1 .07.208V18.685h.419V18.513a.771.771 0 0 0-.053-.281l.002.005a.666.666 0 0 0-.142-.228zm2.514-.017a.73.73 0 0 0-.734-.132.666.666 0 0 0-.386.355l-.002.004a.753.753 0 0 0-.062.314v1.552a.74.74 0 0 0 .062.318.615.615 0 0 0 .164.217c.065.06.141.107.224.137a.722.722 0 0 0 .735-.137l-.001.001a.673.673 0 0 0 .222-.535V18.52a.76.76 0 0 0-.064-.305l.002.005a.698.698 0 0 0-.159-.227zm-.198 2.092.001.024a.28.28 0 0 1-.085.201.309.309 0 0 1-.399-.001.276.276 0 0 1-.085-.2l.001-.026v.001-1.553l-.001-.024a.28.28 0 0 1 .085-.201.309.309 0 0 1 .399.001.276.276 0 0 1 .085.2l-.001.025v-.001 1.553zm3.499.694v-2.94h-.407l-.535 1.556h-.007l-.539-1.556h-.402v2.939h.42V18.99h.008l.411 1.264h.21l.415-1.264h.007v1.788h.42zm2.386-2.734a.576.576 0 0 0-.237-.161.912.912 0 0 0-.289-.046h-.64v2.94h.419V19.63h.215a.772.772 0 0 0 .378-.08.608.608 0 0 0 .228-.222l.002-.003a.71.71 0 0 0 .096-.256c.014-.093.023-.199.023-.308v-.028.001a1.697 1.697 0 0 0-.041-.42.621.621 0 0 0-.155-.27zm-.216.896a.363.363 0 0 1-.04.155l.001-.002a.23.23 0 0 1-.107.102l-.001.001a.42.42 0 0 1-.176.038l-.023-.001h.001-.191v-.999h.236c.061 0 .119.014.171.038l-.002-.001a.242.242 0 0 1 .098.107l.001.002a.445.445 0 0 1 .037.164v.195c0 .068.004.139 0 .202h-.004zm2.2-1.102h-.343l-.648 2.94h.419l.123-.631h.571l.123.631h.419l-.664-2.94zm-.387 1.908.206-1.065h.008l.205 1.065h-.419zm3.093-.137h-.008l-.632-1.771h-.403v2.94h.419v-1.768h.009l.64 1.767h.394v-2.939h-.419v1.771zm2.559-1.771-.337 1.169h-.009l-.337-1.169h-.443l.575 1.697v1.242h.419v-1.242l.575-1.697h-.444zM0 21.609h.202v.566h.137v-.567H.54v-.116H.001v.116zm1.697-.117-.265.683h.145l.056-.155h.272l.058.155h.149l-.271-.683h-.145zm-.022.413.093-.253.093.253h-.186zm1.699.018h.158v.088a.26.26 0 0 1-.162.058h-.01a.174.174 0 0 1-.135-.065.282.282 0 0 1-.051-.163v-.016.001c0-.152.066-.228.196-.228l.015-.001c.067 0 .124.046.139.109v.001l.135-.026c-.029-.133-.125-.201-.289-.201h-.009a.343.343 0 0 0-.23.088.331.331 0 0 0-.098.264v-.001.016c0 .092.033.176.088.241v-.001c.06.062.145.101.238.101l.022-.001H3.38h.011a.407.407 0 0 0 .278-.109v-.269h-.296v.115zm1.713-.431h-.138v.683h.478v-.116h-.34v-.567zm1.449 0h-.138v.683h.138v-.683zm1.416.456-.28-.456h-.134v.683h.128v-.446l.274.446h.137v-.683h-.126v.456zm1.28-.074h.34v-.116h-.34v-.149h.366v-.116h-.504v.683h.518v-.116h-.38v-.185zm3.104-.113h-.269v-.269h-.137v.682h.137v-.299h.269v.299h.137v-.683h-.137v.269zm1.287.113h.341v-.116h-.341v-.149h.367v-.116h-.503v.683h.517v-.116h-.38v-.185zm1.747 0c.119-.019.179-.081.179-.19l.001-.019a.161.161 0 0 0-.068-.132h-.001a.377.377 0 0 0-.173-.041l-.028.001h.001-.289v.682h.137v-.285h.038c.027 0 .052.006.075.016h-.001c.02.012.037.029.049.05l.149.217h.164l-.083-.133a.477.477 0 0 0-.149-.163l-.002-.001zm-.138-.094h-.101v-.171h.108l.029-.001c.039 0 .077.006.113.018l-.003-.001c.018.017.03.04.03.067a.09.09 0 0 1-.036.072.374.374 0 0 1-.114.017l-.027-.001h.001zm1.455.094h.34v-.116h-.34v-.149h.367v-.116h-.505v.683h.518v-.116h-.38v-.185z"/></symbol><symbol id="icon-client3" viewBox="0 0 128 64"><path fill="#afb1b8" style="fill:var(--color3, #afb1b8)" d="M3.16 17.536a.059.059 0 0 1 .037.014l.093.089a.773.773 0 0 1-.262.169.991.991 0 0 1-.347.061h-.025.001a.983.983 0 0 1-.349-.057.762.762 0 0 1-.263-.16h.001a.72.72 0 0 1-.169-.242l-.002-.005a.8.8 0 0 1-.059-.307V17.072c0-.217.094-.413.244-.547l.001-.001a.85.85 0 0 1 .279-.161c.115-.038.237-.058.36-.056h.022c.111 0 .219.019.318.053l-.007-.002a.894.894 0 0 1 .25.143l-.078.095a.082.082 0 0 1-.02.017.05.05 0 0 1-.027.007h-.004a.075.075 0 0 1-.034-.01l-.041-.026-.058-.032a.632.632 0 0 0-.18-.056h-.004a.742.742 0 0 0-.129-.01h-.011.001-.009a.767.767 0 0 0-.255.044l.005-.002a.597.597 0 0 0-.203.12h.001a.545.545 0 0 0-.131.19.633.633 0 0 0-.047.242v.019c0 .088.017.172.049.249l-.002-.004c.029.07.073.134.129.189a.519.519 0 0 0 .193.117.715.715 0 0 0 .239.041c.047 0 .095-.002.142-.008a.558.558 0 0 0 .308-.131l-.001.001a.068.068 0 0 1 .044-.016zm2.687-.446v.009c0 .11-.023.215-.065.31l.002-.005a.684.684 0 0 1-.174.243l-.001.001a.794.794 0 0 1-.27.158l-.006.002a1.14 1.14 0 0 1-.716-.002l.008.002a.816.816 0 0 1-.274-.162l.001.001a.726.726 0 0 1-.175-.242l-.002-.005a.81.81 0 0 1 .002-.635l-.002.005c.04-.092.1-.176.177-.247a.818.818 0 0 1 .273-.155 1.113 1.113 0 0 1 .716.002l-.008-.002c.103.036.197.091.274.16s.137.154.176.244a.794.794 0 0 1 .063.317zm-.244 0v-.013a.658.658 0 0 0-.046-.244l.002.005a.526.526 0 0 0-.317-.307l-.004-.001a.81.81 0 0 0-.52.002l.006-.002a.526.526 0 0 0-.322.306l-.001.003a.73.73 0 0 0 .002.511l-.002-.005a.517.517 0 0 0 .319.306l.004.001a.836.836 0 0 0 .514 0 .547.547 0 0 0 .196-.118.533.533 0 0 0 .125-.189.665.665 0 0 0 .044-.253zm2.077.265.024.056.027-.056c.01-.022.02-.04.032-.058l-.001.002.594-.939c.012-.016.022-.026.034-.029s.026-.005.041-.005h.183v1.527h-.208v-1.17l-.001-.026.001-.028v.001l-.599.952a.082.082 0 0 1-.035.034.103.103 0 0 1-.05.013H7.686a.106.106 0 0 1-.05-.013.08.08 0 0 1-.034-.034l-.616-.958v1.226h-.201v-1.524h.183c.014 0 .029.002.042.006h-.001a.065.065 0 0 1 .032.029l.607.94a.3.3 0 0 1 .029.053l.001.002zm2.237-.076v.572h-.232v-1.525h.519c.098-.002.195.01.29.033a.592.592 0 0 1 .205.095c.05.039.089.089.115.147l.001.003a.458.458 0 0 1 .04.195v.009c0 .138-.066.26-.168.338l-.001.001a.6.6 0 0 1-.206.101.948.948 0 0 1-.262.036h-.019l-.281-.004zm0-.164h.282a.652.652 0 0 0 .181-.023.404.404 0 0 0 .131-.066l-.001.001a.293.293 0 0 0 .107-.226v-.004l.001-.016a.263.263 0 0 0-.024-.109l.001.002a.308.308 0 0 0-.081-.104h-.001a.496.496 0 0 0-.276-.083l-.039.001h.002-.282v.628zm3.127.738h-.187a.087.087 0 0 1-.048-.014.092.092 0 0 1-.03-.035v-.001l-.158-.369h-.795l-.164.369a.086.086 0 0 1-.079.049h-.186l.698-1.527h.242l.707 1.527zm-1.151-.567h.656l-.277-.622a1.299 1.299 0 0 1-.053-.143l-.027.08a.516.516 0 0 1-.026.065l-.274.62zm2.157-.953a.094.094 0 0 1 .035.027l1.018 1.152v-1.186h.208v1.527H15.192a.103.103 0 0 1-.046-.01h.001a.13.13 0 0 1-.037-.028l-1.017-1.15.001.026-.001.027v-.001 1.135h-.208v-1.527h.123c.014 0 .029.003.042.007zm2.975.912v.606h-.233v-.606l-.643-.92h.213c.017 0 .032.005.045.013.013.01.023.022.032.035l.402.593.042.071a.584.584 0 0 1 .029.064l.03-.066a.7.7 0 0 1 .04-.07l.397-.597a.152.152 0 0 1 .03-.032.081.081 0 0 1 .046-.015h.215l-.644.924zm-9.46-3.482c.101.011.204.02.307.028 1.57-.61 2.898-1.609 3.818-2.871s1.391-2.732 1.355-4.226l-1.73-1.503c.352 1.59.188 3.234-.475 4.748s-1.796 2.837-3.276 3.823z"/><path fill="#afb1b8" style="fill:var(--color3, #afb1b8)" d="m6.948 13.693.046.009c1.58-.983 2.785-2.354 3.459-3.937s.785-3.306.32-4.945L8.309 2.679c.996 1.76 1.398 3.729 1.156 5.679s-1.114 3.8-2.517 5.335zm8.356-5.234c-.419 1.641-1.435 3.121-2.899 4.221-.4.304-.851.589-1.326.835l-.052.024c1.192-.304 2.287-.842 3.202-1.573s1.624-1.634 2.074-2.64l-.999-.867z"/><path fill="#afb1b8" style="fill:var(--color3, #afb1b8)" d="M14.912 8.218 13.49 6.982c-.027 1.409-.489 2.787-1.335 3.989s-2.05 2.185-3.482 2.847h.007c.319 0 .638-.017.955-.05 1.338-.475 2.521-1.23 3.442-2.199s1.552-2.12 1.836-3.351zM7.154 1.775 5.457.299C3.94.808 2.635 1.704 1.713 2.868S.296 5.412.291 6.825c.006 1.562.611 3.077 1.719 4.306s2.657 2.102 4.401 2.481c1.556-1.648 2.468-3.684 2.602-5.813S8.495 3.56 7.154 1.774zM18.833 7.99c-.006-1.853-.856-3.628-2.364-4.938S12.917 1.004 10.785.998h-.016a9.037 9.037 0 0 0-2.929.485l.064-.019 10.391 9.028a6.023 6.023 0 0 0 .538-2.502z"/></symbol><symbol id="icon-client4" viewBox="0 0 128 64"><path fill="#afb1b8" style="fill:var(--color3, #afb1b8)" d="M5.609 5.591h-.001c-1.023 0-1.853.737-1.853 1.647v.001c0 .909.829 1.647 1.853 1.647h.001c1.023 0 1.853-.737 1.853-1.646v-.001c0-.91-.829-1.647-1.853-1.647zm13.674-.526c-.003-1.263-.569-2.474-1.574-3.367S15.342.302 13.922.299c-1.422.002-2.784.505-3.79 1.398S8.561 3.801 8.558 5.064v6.965s10.724-1.062 10.725-6.963v-.001zM0 14.315c.003.879.397 1.721 1.096 2.342s1.647.971 2.635.974c.989-.003 1.936-.353 2.635-.974s1.093-1.463 1.096-2.342V9.469S0 10.208 0 14.314zm3.731.867c-.193 0-.382-.051-.543-.146a.905.905 0 0 1-.357-.384l-.002-.005a.764.764 0 0 1-.054-.507l-.001.005a.85.85 0 0 1 .267-.445 1.01 1.01 0 0 1 .494-.237l.006-.001a1.095 1.095 0 0 1 .572.051l-.008-.002c.179.066.332.177.439.32s.165.311.165.482a.795.795 0 0 1-.073.334.878.878 0 0 1-.211.282l-.001.001a.982.982 0 0 1-.317.189c-.111.042-.24.067-.374.067h-.001v-.003zm7.541-.477h-.72v.744h-.375v-1.821h1.185v.304h-.81v.47h.72v.303zm1.802-.125c0 .179-.032.336-.095.471a.714.714 0 0 1-.664.423h-.014.001a.726.726 0 0 1-.677-.415l-.002-.004a1.05 1.05 0 0 1-.099-.45v-.016.001-.09c0-.179.032-.337.096-.473a.715.715 0 0 1 .679-.424.715.715 0 0 1 .678.424c.064.137.097.293.097.471v.081zm-.38-.083c0-.191-.034-.336-.102-.435a.336.336 0 0 0-.278-.149h-.015.001-.014a.332.332 0 0 0-.276.147l-.001.001c-.068.098-.103.241-.104.43v.089c0 .186.034.33.102.432s.166.154.295.154h.015a.333.333 0 0 0 .275-.146l.001-.001c.067-.099.102-.243.102-.433v-.089zm1.596.473v-.011a.188.188 0 0 0-.075-.151.95.95 0 0 0-.27-.12 1.91 1.91 0 0 1-.319-.13l.011.005c-.207-.112-.31-.262-.31-.451 0-.098.027-.186.082-.262.056-.078.136-.138.239-.181s.221-.065.35-.065c.13 0 .246.023.348.071s.181.113.236.199a.513.513 0 0 1 .085.292h-.375a.243.243 0 0 0-.079-.194.32.32 0 0 0-.221-.07.345.345 0 0 0-.214.059.182.182 0 0 0-.076.148v.004c0 .059.03.109.089.149s.148.077.264.112c.213.064.369.144.466.239s.146.213.146.355c0 .157-.06.282-.179.371s-.279.134-.481.134a.936.936 0 0 1-.383-.077.615.615 0 0 1-.262-.209l-.001-.002a.538.538 0 0 1-.09-.299v-.012.001h.376c0 .201.12.301.36.301a.353.353 0 0 0 .209-.054.178.178 0 0 0 .075-.145v-.007zm2.001-1.038h-.557v1.516h-.375v-1.516h-.549v-.304h1.482v.304zm1.31.727h-.72v.488h.845v.301h-1.22v-1.821h1.218v.304h-.843v.434h.72v.294zm1.019.123h-.299v.666h-.375v-1.821h.676c.215 0 .381.048.497.144s.175.231.175.406a.56.56 0 0 1-.081.311.553.553 0 0 1-.24.196l-.004.001.393.744v.017h-.402l-.341-.666zm-.298-.304h.303c.094 0 .166-.023.218-.071a.26.26 0 0 0 .078-.185v-.015.001c0-.086-.024-.154-.073-.203s-.123-.074-.224-.074h-.301v.546zm2.272.329v.641h-.375v-1.821h.71c.137 0 .257.025.36.075s.184.121.24.214a.6.6 0 0 1 .084.314c0 .178-.061.319-.183.422s-.291.154-.506.154h-.329zm0-.304h.335c.099 0 .175-.023.226-.07.053-.047.079-.114.079-.2v-.014a.3.3 0 0 0-.079-.203.295.295 0 0 0-.218-.085h-.344v.572zm2.372.156h-.72v.488h.845v.301h-1.22v-1.821h1.218v.304h-.843v.434h.72v.294zm1.741-.727h-.558v1.516h-.375v-1.516h-.55v-.304h1.483v.304zm1.309.727h-.719v.488h.845v.301h-1.22v-1.821h1.218v.304h-.842v.434h.72v.294zm1.019.123h-.299v.666h-.375v-1.821h.677c.215 0 .381.048.497.144s.175.231.175.406a.56.56 0 0 1-.081.311.546.546 0 0 1-.24.196l-.004.001.394.744v.017h-.402l-.341-.666zm-.298-.304h.302c.094 0 .167-.023.218-.071a.26.26 0 0 0 .078-.185v-.014.001a.271.271 0 0 0-.074-.203c-.048-.049-.123-.074-.224-.074h-.301v.546zm2.203.493v-.011a.19.19 0 0 0-.075-.152.95.95 0 0 0-.27-.12 1.91 1.91 0 0 1-.319-.13l.011.005c-.207-.112-.31-.262-.31-.451 0-.098.028-.186.082-.262.056-.078.136-.138.239-.181s.221-.065.35-.065c.13 0 .246.023.348.071s.18.113.236.199a.513.513 0 0 1 .085.292h-.375a.246.246 0 0 0-.078-.194c-.052-.047-.126-.07-.221-.07a.345.345 0 0 0-.214.059.18.18 0 0 0-.077.148v.004c0 .059.03.109.089.149s.148.077.264.112c.213.064.369.144.466.239s.146.213.146.355c0 .157-.06.282-.179.371s-.279.134-.481.134a.94.94 0 0 1-.383-.077.615.615 0 0 1-.262-.209l-.001-.002a.538.538 0 0 1-.09-.299v-.012.001h.376c0 .201.12.301.36.301a.353.353 0 0 0 .209-.054.179.179 0 0 0 .075-.146v-.007z"/></symbol><symbol id="icon-client5" viewBox="0 0 128 64"><path fill="#afb1b8" style="fill:var(--color3, #afb1b8)" d="M2.03 16.527a.616.616 0 0 1 .157.417l.001.032a.616.616 0 0 1-.058.261l.002-.004a.662.662 0 0 1-.186.237l-.001.001a1.109 1.109 0 0 1-.708.191h.003H.001v-2.641h1.213c.021-.002.046-.002.072-.002a1.1 1.1 0 0 1 .605.18l-.004-.003c.079.061.141.137.181.222s.059.179.054.273a.58.58 0 0 1-.141.404.67.67 0 0 1-.369.206.716.716 0 0 1 .418.226zm-1.454-.399h.519a.523.523 0 0 0 .33-.088.306.306 0 0 0 .087-.115l.001-.002a.29.29 0 0 0 .024-.116l-.001-.026v.001l.001-.022a.3.3 0 0 0-.025-.12l.001.002a.318.318 0 0 0-.086-.117.53.53 0 0 0-.341-.089h.002-.511v.693zm.9 1.013a.343.343 0 0 0 .095-.119l.001-.002a.306.306 0 0 0 .028-.126l-.001-.022v.001l.001-.019a.308.308 0 0 0-.03-.132l.001.002a.33.33 0 0 0-.097-.121l-.001-.001a.561.561 0 0 0-.354-.096h.002-.544v.727h.551a.586.586 0 0 0 .348-.092zm3.034.522-.675-1.033h-.254v1.033H3v-2.642h1.099a1.148 1.148 0 0 1 .768.226l-.003-.002a.81.81 0 0 1 .264.588.793.793 0 0 1-.183.507l.001-.001a.918.918 0 0 1-.519.268l-.005.001.719 1.056H4.51zm-.929-1.393h.475c.33 0 .495-.133.495-.4l.001-.021c0-.05-.01-.098-.028-.141l.001.002a.39.39 0 0 0-.094-.137.543.543 0 0 0-.328-.109l-.048.002h.002-.48l.006.804zm4.103.861H6.527l-.204.532h-.609l1.062-2.612h.658l1.059 2.612h-.608l-.2-.532zm-.155-.4-.423-1.115-.423 1.115h.846zm4.128.932h-.576l-1.293-1.796v1.796h-.575v-2.642h.575l1.293 1.807v-1.807h.576v2.642zm3.29-.633a1.202 1.202 0 0 1-.522.466 1.81 1.81 0 0 1-.764.167l-.049-.001h.002-1.026V15.02h1.026l.048-.001c.276 0 .538.06.774.168l-.012-.005c.221.102.402.263.521.461.119.215.181.452.181.693s-.062.478-.181.693zm-.659-.063a.923.923 0 0 0 .255-.63.918.918 0 0 0-.255-.63 1.058 1.058 0 0 0-.656-.227l-.069.002h.003-.4v1.71h.4l.066.002c.248 0 .477-.085.658-.228l-.002.002zM8.045.327s7.44 2.572 7.283 6.294v6.295s-7.435-2.573-7.28-6.295L8.045.327zm13.911 11.115a10.795 10.795 0 0 1 4.727-1.595V7.876c-1.955.69-3.614 1.941-4.727 3.566z"/><path fill="#afb1b8" style="fill:var(--color3, #afb1b8)" d="M21.112 12.036c1.15-2.121 3.144-3.757 5.571-4.573V1.785s-10.596 3.664-10.372 8.964v8.963s.472-.164 1.215-.471c0-.286 0-.576.034-.866.219-2.46 1.496-4.74 3.552-6.339z"/><path fill="#afb1b8" style="fill:var(--color3, #afb1b8)" d="M20.105 15.366a8.5 8.5 0 0 1 .371-1.835c-1.28 1.38-2.055 3.093-2.216 4.898-.016.17-.024.34-.028.516a29.929 29.929 0 0 0 2.209-1.067l-.171.084a8.513 8.513 0 0 1-.165-2.595zm.421.032a8.176 8.176 0 0 0 .14 2.402l-.009-.053c2.895-1.586 6.148-4.037 6.022-6.999v-.258c-2.069.212-4.003 1.04-5.508 2.357a8.029 8.029 0 0 0-.643 2.518l-.002.032z"/></symbol><symbol id="icon-clock" viewBox="0 0 128 64"><path fill="#212121" style="fill:var(--color1, #212121)" d="M29.21 14.281C29.209 6.392 22.812-.002 14.923 0S.64 6.398.642 14.287c.002 6.335 4.127 11.706 9.838 13.575l.101.029a.63.63 0 0 0 .494-.06.6.6 0 0 0 .265-.333l3.607-11.433a1.785 1.785 0 1 0-.794-3.387l.011-.005-4.765-4.766a.593.593 0 0 0-1.008.428c0 .161.064.306.167.413l4.763 4.768a1.748 1.748 0 0 0 .496 2.153l.004.003-3.437 10.895C3.591 24.065.113 16.53 2.615 9.737S12.652-.534 19.445 1.969c6.793 2.502 10.271 10.037 7.768 16.829-1.255 3.343-3.736 5.979-6.882 7.409l-.082.033-.371-1.749a.596.596 0 0 0-.979-.321h.001l-3.581 3.197a.595.595 0 0 0 .211 1.011l.004.001 4.572 1.459a.595.595 0 0 0 .764-.695l.001.004-.365-1.716c5.159-2.216 8.707-7.253 8.707-13.12v-.032.002zm-14.284-.595a.595.595 0 0 1 0 1.19.595.595 0 0 1 0-1.19zm1.96 13.873 2.039-1.818.563 2.651-2.601-.832z"/><path fill="#2196f3" style="fill:var(--color2, #2196f3)" d="M14.331 2.973v1.19a.595.595 0 0 0 1.19 0v-1.19a.595.595 0 0 0-1.19 0zM3.618 13.686a.595.595 0 0 0 0 1.19h1.19a.595.595 0 0 0 0-1.19h-1.19zm22.616 1.191a.595.595 0 0 0 0-1.19h-1.19a.595.595 0 0 0 0 1.19h1.19z"/></symbol><symbol id="icon-diagram" viewBox="0 0 128 64"><path fill="#2196f3" style="fill:var(--color2, #2196f3)" d="M13.931 13.967h.995v4.478h-.995v-4.478zm3.98 1.99h.995v2.487h-.995v-2.487zM9.95 17.45h.995v.995H9.95v-.995zm-2.985-.498h.995v1.492h-.995v-1.492z"/><path fill="#212121" style="fill:var(--color1, #212121)" d="M1.492 26.405h23.881c.824 0 1.492-.668 1.492-1.492v-1.99c0-.824-.668-1.492-1.492-1.492h-.497V9.024l2.826-2.677a1.501 1.501 0 1 0-.693-.702l-.004-.009-2.129 2.018V6.506c0-.824-.668-1.492-1.492-1.492H3.483c-.824 0-1.492.668-1.492 1.492v14.926h-.498c-.824 0-1.492.668-1.492 1.492v1.99c0 .824.668 1.492 1.492 1.492zM28.358 4.514a.497.497 0 1 1 0 .994.497.497 0 1 1 0-.994zM2.985 6.504c0-.275.223-.497.498-.497h19.901c.275 0 .497.223.497.497v2.089l-.995.946V7.5a.498.498 0 0 0-.498-.498H4.478a.498.498 0 0 0-.498.497v12.438c0 .275.223.497.498.497h17.91a.498.498 0 0 0 .498-.497v-9.03l.995-.943v11.465H2.985V6.504zm4.478 6.468h-.004a1.492 1.492 0 1 0 1.038 2.564l1.729.868a.5.5 0 0 0 .594-.114l3.676-4.136 3.614 2.708c.194.145.465.13.64-.037l3.141-2.975v7.589H4.976V7.996h16.915v2.483l-3.52 3.334-3.644-2.732a.495.495 0 0 0-.67.066v.001l-3.726 4.193-1.393-.697c.01-.06.016-.12.019-.181 0-.824-.668-1.492-1.492-1.492zm.497 1.492a.498.498 0 1 1-.994 0 .498.498 0 1 1 .994 0zm2.985 7.961h4.975v.497a.496.496 0 0 1-.497.497h-3.98a.498.498 0 0 1-.498-.497v-.497zm-9.95.497c0-.275.222-.497.497-.497H9.95v.497c0 .824.668 1.492 1.492 1.492h3.98c.824 0 1.493-.668 1.493-1.492v-.497h8.458c.275 0 .497.223.497.497v1.99a.497.497 0 0 1-.497.497H1.492a.498.498 0 0 1-.498-.497v-1.99z"/></symbol><symbol id="icon-envelope" viewBox="0 0 128 64"><path fill="#757575" style="fill:var(--color4, #757575)" d="M6.187 0H.64A.64.64 0 0 0 0 .64v3.84c0 .353.287.64.64.64h5.547a.64.64 0 0 0 .64-.64V.64a.64.64 0 0 0-.64-.64zm0 .427c.029 0 .057.006.082.017L3.414 2.919.559.444A.214.214 0 0 1 .641.427h5.547zm0 4.266H.64a.213.213 0 0 1-.213-.213V.894l2.847 2.467c.037.033.086.052.14.052s.103-.02.14-.053L6.401.893v3.586a.213.213 0 0 1-.213.213z"/></symbol><symbol id="icon-facebook" viewBox="0 0 128 64"><path fill="#fff" style="fill:var(--color5, #fff)" d="M5.687 1.417h.779V.06A9.757 9.757 0 0 0 5.371 0h-.042.002C4.208 0 3.438.707 3.438 2.005V3.2H2.199v1.517h1.239v3.817h1.52V4.718h1.189l.189-1.517H4.957V2.155c0-.438.118-.738.729-.738z"/></symbol><symbol id="icon-instagram" viewBox="0 0 128 64"><path fill="#fff" style="fill:var(--color5, #fff)" d="M8.525 2.509c-.02-.454-.093-.765-.198-1.035a2.1 2.1 0 0 0-.493-.757A2.1 2.1 0 0 0 7.093.23L7.079.225A3.131 3.131 0 0 0 6.044.027C5.587.005 5.442 0 4.284 0S2.981.005 2.525.025c-.453.02-.765.093-1.035.198a2.092 2.092 0 0 0-.757.493c-.211.208-.378.46-.487.741l-.005.014a3.131 3.131 0 0 0-.198 1.035c-.022.457-.027.602-.027 1.76s.005 1.303.025 1.759c.02.454.093.765.198 1.035.114.296.281.549.493.757.213.217.472.385.755.491.272.105.582.179 1.035.198.455.02.6.025 1.759.025s1.304-.005 1.759-.025c.454-.02.765-.093 1.035-.198a2.201 2.201 0 0 0 1.244-1.234l.005-.015c.105-.272.178-.582.198-1.035.02-.455.025-.6.025-1.759s-.002-1.303-.021-1.759zm-.768 3.484c-.019.417-.089.642-.147.792a1.421 1.421 0 0 1-.801.806l-.01.003c-.149.058-.376.128-.791.147-.45.02-.585.025-1.724.025s-1.275-.005-1.724-.025c-.417-.018-.642-.088-.792-.147a1.324 1.324 0 0 1-.49-.318 1.334 1.334 0 0 1-.316-.481l-.003-.009c-.058-.15-.128-.377-.146-.792-.02-.45-.025-.585-.025-1.724s.005-1.276.025-1.724c.018-.417.088-.642.146-.792a1.3 1.3 0 0 1 .32-.49c.134-.138.298-.246.482-.315L1.77.946c.149-.058.376-.128.791-.147.45-.02.585-.025 1.724-.025 1.14 0 1.275.005 1.724.025.417.018.642.088.792.147.185.068.353.177.49.318.142.139.25.305.319.491.058.149.128.376.146.791.02.45.025.585.025 1.724s-.005 1.271-.025 1.722z"/><path fill="#fff" style="fill:var(--color5, #fff)" d="M4.282 2.075a2.193 2.193 0 1 0 0 4.386 2.193 2.193 0 0 0 .001-4.387zm0 3.614a1.422 1.422 0 0 1 0-2.844 1.422 1.422 0 0 1 0 2.844zm2.791-3.7a.512.512 0 1 1-1.024 0 .512.512 0 1 1 1.024 0z"/></symbol><symbol id="icon-linkedin" viewBox="0 0 128 64"><path fill="#fff" style="fill:var(--color5, #fff)" d="M8.531 8.533h.002v-3.13c0-1.531-.33-2.71-2.119-2.71-.861 0-1.438.472-1.674.92h-.025v-.777H3.018v5.697h1.767V5.712c0-.743.141-1.461 1.061-1.461.906 0 .919.848.919 1.509v2.774h1.766zM.141 2.836H1.91v5.697H.141V2.836zM1.025 0C.459 0 0 .459 0 1.025c0 .565.459 1.034 1.025 1.034s1.024-.469 1.024-1.034C2.049.459 1.59.001 1.025 0z"/></symbol><symbol id="icon-telephone" viewBox="0 0 128 64"><path fill="#757575" style="fill:var(--color4, #757575)" d="M3.627 0H.64A.64.64 0 0 0 0 .64v5.547c0 .353.287.64.64.64h2.987a.64.64 0 0 0 .64-.64V.64a.64.64 0 0 0-.64-.64zM.64.427h2.987c.118 0 .213.096.213.213v4.48H.427V.64C.427.522.523.427.64.427zM3.627 6.4H.64a.213.213 0 0 1-.213-.213v-.64H3.84v.64a.213.213 0 0 1-.213.213z"/><path fill="#757575" style="fill:var(--color4, #757575)" d="M1.004 5.862a.19.19 0 0 1 .001.282.221.221 0 0 1-.302 0 .19.19 0 0 1-.001-.282.221.221 0 0 1 .302 0z"/></symbol><symbol id="icon-twitter" viewBox="0 0 128 64"><path fill="#fff" style="fill:var(--color5, #fff)" d="M8.533 1.621a3.51 3.51 0 0 1-.99.274l-.018.002c.363-.218.635-.554.766-.955L8.295.93c-.319.193-.691.34-1.087.419l-.022.004A1.749 1.749 0 0 0 4.16 2.549v.001c0 .139.011.272.041.399a4.953 4.953 0 0 1-3.606-1.83c-.15.253-.24.558-.241.883 0 .606.312 1.143.777 1.454a1.715 1.715 0 0 1-.798-.22l.009.005v.019a1.757 1.757 0 0 0 1.39 1.717l.012.002a1.72 1.72 0 0 1-.443.057h-.016.001a1.51 1.51 0 0 1-.331-.03c.227.693.87 1.202 1.635 1.219a3.496 3.496 0 0 1-2.166.747h-.02c-.142 0-.281-.009-.418-.027l.016.002a4.883 4.883 0 0 0 2.668.785h.017-.001c3.219 0 4.979-2.667 4.979-4.978 0-.077-.003-.152-.006-.226.346-.249.637-.55.869-.895l.008-.012z"/></symbol></defs></svg>